HIERARCHY
ROOT Hips
{
 OFFSET 0.000000 0.000000 0.000000
 CHANNELS 6 Xposition Yposition Zposition Yrotation Xrotation Zrotation
 JOINT Chest
 {
  OFFSET 0.000000 9.585900 0.002600
  CHANNELS 3 Yrotation Xrotation Zrotation
  JOINT Chest2
  {
   OFFSET 0.000000 9.601200 -0.005300
   CHANNELS 3 Yrotation Xrotation Zrotation
   JOINT Chest3
   {
    OFFSET 0.000000 9.561800 0.000000
    CHANNELS 3 Yrotation Xrotation Zrotation
    JOINT Chest4
    {
     OFFSET 0.000000 9.552100 0.000000
     CHANNELS 3 Yrotation Xrotation Zrotation
     JOINT Neck
     {
      OFFSET 0.000000 14.453000 0.000000
      CHANNELS 3 Yrotation Xrotation Zrotation
      JOINT Head
      {
       OFFSET 0.000000 8.936500 -0.011300
       CHANNELS 3 Yrotation Xrotation Zrotation
       End Site
       {
        OFFSET 0.000000 17.073600 -0.006000
       }
      }
     }
     JOINT RightCollar
     {
      OFFSET -2.921100 9.558500 0.000000
      CHANNELS 3 Yrotation Xrotation Zrotation
      JOINT RightShoulder
      {
       OFFSET -13.519700 0.000000 0.000000
       CHANNELS 3 Yrotation Xrotation Zrotation
       JOINT RightElbow
       {
        OFFSET 0.000000 -29.696600 0.000000
        CHANNELS 3 Yrotation Xrotation Zrotation
        JOINT RightWrist
        {
         OFFSET 0.000000 -24.004700 0.000000
         CHANNELS 3 Yrotation Xrotation Zrotation
         End Site
         {
          OFFSET 0.000000 -17.728500 0.000000
         }
        }
       }
      }
     }
     JOINT LeftCollar
     {
      OFFSET 2.921100 9.558500 0.000000
      CHANNELS 3 Yrotation Xrotation Zrotation
      JOINT LeftShoulder
      {
       OFFSET 13.519700 0.000000 0.000000
       CHANNELS 3 Yrotation Xrotation Zrotation
       JOINT LeftElbow
       {
        OFFSET 0.000000 -29.696600 0.000000
        CHANNELS 3 Yrotation Xrotation Zrotation
        JOINT LeftWrist
        {
         OFFSET 0.000000 -24.004700 0.000000
         CHANNELS 3 Yrotation Xrotation Zrotation
         End Site
         {
          OFFSET 0.000000 -17.728500 0.000000
         }
        }
       }
      }
     }
    }
   }
  }
 }
 JOINT RightHip
 {
  OFFSET -7.771700 -0.012900 -0.001300
  CHANNELS 3 Yrotation Xrotation Zrotation
  JOINT RightKnee
  {
   OFFSET 0.000000 -40.869800 0.001200
   CHANNELS 3 Yrotation Xrotation Zrotation
   JOINT RightAnkle
   {
    OFFSET 0.000000 -39.717900 0.002100
    CHANNELS 3 Yrotation Xrotation Zrotation
    JOINT RightToe
    {
     OFFSET 0.000000 -4.965400 11.033500
     CHANNELS 3 Yrotation Xrotation Zrotation
     End Site
     {
      OFFSET 0.000000 -1.423100 5.872300
     }
    }
   }
  }
 }
 JOINT LeftHip
 {
  OFFSET 7.771700 -0.012900 -0.001300
  CHANNELS 3 Yrotation Xrotation Zrotation
  JOINT LeftKnee
  {
   OFFSET 0.000000 -40.869800 0.001200
   CHANNELS 3 Yrotation Xrotation Zrotation
   JOINT LeftAnkle
   {
    OFFSET 0.000000 -39.717900 0.002100
    CHANNELS 3 Yrotation Xrotation Zrotation
    JOINT LeftToe
    {
     OFFSET 0.000000 -4.965400 11.033500
     CHANNELS 3 Yrotation Xrotation Zrotation
     End Site
     {
      OFFSET 0.000000 -1.423100 5.872300
     }
    }
   }
  }
 }
}
MOTION
Frames: 14
Frame Time: 0.008333
0.000000 85.388000 0.000000 0.000000 -5.767877 0.000000 0.000000 11.653817 0.000000 0.000000 -5.885947 0.000000 0.000000 -0.000000 0.000000 0.000000 -0.000000 0.000000 0.000000 12.528835 0.000000 0.000000 0.711642 0.000000 0.000000 -0.000000 0.000000 0.000000 0.000000 -90.000000 0.000000 -2.309062 0.000000 0.000000 2.309062 0.000000 0.000000 -0.000000 0.000000 0.000000 -0.000000 90.000000 0.000000 -2.309062 0.000000 0.000000 2.309062 0.000000 0.000000 8.520406 0.000000 0.000000 1.905762 0.000000 -0.000000 -4.658285 0.000000 0.000000 -0.000000 0.000000 0.000000 8.520406 0.000000 0.000000 1.905762 0.000000 -0.000000 -4.658285 0.000000 0.000000 -0.000000 0.000000
-16.033813 57.124296 87.535871 171.946884 -33.629135 0.096396 5.549393 21.845181 6.950101 0.574478 3.182062 0.624359 0.960497 5.144717 1.025008 4.075928 18.581316 4.261737 4.859181 7.568707 -7.508254 13.285471 -20.502417 -17.216701 5.077166 1.074475 -2.763017 13.294943 -43.057033 -22.401850 -80.641748 -63.413554 81.497196 -6.341363 10.785184 -1.531372 -10.204867 -5.839127 -6.716158 -10.096775 -26.531565 -0.893417 18.790492 -9.688306 -37.359512 10.606573 -6.939836 11.371033 15.329482 -38.813218 -3.587751 -4.055468 67.335499 -2.602447 7.313557 5.304666 8.274119 -0.065143 0.187028 -0.078521 -8.464022 -44.196500 8.162551 25.436614 65.862570 25.814662 -12.714812 29.732265 -2.778363 -0.193687 -14.527266 -6.541543
-16.037856 57.123502 87.537900 171.944740 -33.632072 0.101353 5.560944 21.848479 6.948267 0.578293 3.182744 0.626207 0.965234 5.150439 1.027534 4.091294 18.592297 4.266612 4.983730 7.571369 -7.576165 13.559843 -20.458724 -17.407565 5.057014 1.065217 -2.758379 13.148178 -43.065598 -22.280315 -81.499746 -63.384365 81.504197 -7.214002 9.404282 -5.228461 -10.233597 -5.859198 -6.704793 -10.105120 -26.543377 -0.883071 18.781356 -9.707771 -37.380810 10.610390 -6.925080 11.362844 15.353699 -38.806789 -3.624684 -4.042111 67.331840 -2.554421 7.323262 5.305722 8.266548 -0.066060 0.184166 -0.074757 -8.447805 -44.198424 8.139855 25.439493 65.861093 25.828319 -12.689562 29.735418 -2.763149 -0.198330 -14.496917 -6.550659
-16.041905 57.120981 87.542186 171.954635 -33.620734 0.100150 5.553268 21.838375 6.942850 0.588195 3.189623 0.625559 0.970069 5.156154 1.029371 4.109580 18.598493 4.267266 5.107790 7.572614 -7.642446 13.832596 -20.417511 -17.595139 5.041614 1.073293 -2.742894 13.013548 -43.084738 -22.149432 -82.629495 -63.296356 81.778063 -8.058141 7.963627 -8.838991 -10.248665 -5.880660 -6.687602 -10.077559 -26.554307 -0.872107 18.751233 -9.734953 -37.452226 10.625597 -6.890928 11.401984 15.373624 -38.814965 -3.670875 -4.034635 67.327778 -2.505679 7.332627 5.307993 8.252283 -0.063453 0.186507 -0.074023 -8.441721 -44.216403 8.122010 25.422320 65.855472 25.824938 -12.680072 29.754482 -2.767120 -0.203919 -14.489778 -6.547867
-16.044437 57.118389 87.546266 171.963718 -33.612107 0.095776 5.561433 21.835242 6.942072 0.591389 3.192798 0.626391 0.975022 5.160751 1.030734 4.122504 18.601620 4.266412 5.230120 7.574779 -7.705746 14.100124 -20.375029 -17.775707 5.014229 1.057144 -2.727420 12.872076 -43.084494 -21.969304 -83.981961 -63.140356 82.291822 -8.882222 6.495203 -12.363855 -10.247730 -5.883506 -6.675488 -10.078569 -26.558055 -0.870427 18.737827 -9.755759 -37.491999 10.608107 -6.875549 11.394772 15.388392 -38.821506 -3.697387 -4.026889 67.322867 -2.473719 7.328989 5.309355 8.249410 -0.063936 0.183946 -0.068172 -8.437910 -44.233394 8.113101 25.398175 65.852019 25.815890 -12.691808 29.786109 -2.779408 -0.197924 -14.495599 -6.546860
-16.046888 57.114237 87.552083 171.989415 -33.588730 0.087578 5.552063 21.815995 6.934288 0.594155 3.195846 0.626473 0.998997 5.176700 1.022255 4.103896 18.584329 4.278314 5.359909 7.589092 -7.775691 14.359230 -20.327561 -17.946397 5.000731 1.051760 -2.718188 12.695824 -43.095042 -21.742298 -85.504905 -62.940726 83.024218 -9.644094 5.020468 -15.834716 -10.256440 -5.885671 -6.670081 -10.045275 -26.548678 -0.880399 18.715708 -9.778506 -37.518748 10.594607 -6.867171 11.384384 15.399887 -38.843467 -3.742628 -4.024171 67.321701 -2.437190 7.331797 5.314333 8.239780 -0.060093 0.178206 -0.062099 -8.448339 -44.264202 8.103139 25.356293 65.842091 25.794965 -12.730881 29.820987 -2.828034 -0.174152 -14.500184 -6.531863
-16.046220 57.111177 87.556084 172.000915 -33.576540 0.078645 5.575771 21.813502 6.932622 0.583275 3.191840 0.635259 0.991909 5.171930 1.024613 4.110236 18.587169 4.277880 5.482820 7.605697 -7.844702 14.606814 -20.271947 -18.106158 4.991084 1.056492 -2.710583 12.459970 -43.133277 -21.462045 -87.113639 -62.762657 83.909155 -10.288548 3.543470 -19.277257 -10.269070 -5.891318 -6.659913 -10.011180 -26.536669 -0.896509 18.688556 -9.794353 -37.526805 10.600788 -6.864604 11.362392 15.388451 -38.857419 -3.747359 -4.026254 67.318325 -2.432066 7.331165 5.319814 8.234483 -0.056416 0.167942 -0.050658 -8.454077 -44.286363 8.107882 25.331835 65.843727 25.781874 -12.751884 29.855635 -2.840180 -0.159055 -14.518705 -6.535076
-16.043633 57.108524 87.559297 172.013052 -33.564855 0.066995 5.578485 21.805324 6.933737 0.589104 3.192693 0.632669 0.986414 5.169472 1.029376 4.141797 18.600673 4.250839 5.577886 7.611946 -7.879458 14.839421 -20.205566 -18.253590 4.943708 1.054475 -2.671307 12.177309 -43.200758 -21.128876 -88.742801 -62.700780 84.869925 -10.769533 2.077121 -22.660834 -10.312348 -5.891777 -6.614218 -9.999097 -26.543073 -0.897211 18.699015 -9.801457 -37.541322 10.604551 -6.857188 11.362459 15.364291 -38.870467 -3.737005 -4.003979 67.313504 -2.421539 7.337093 5.320352 8.240036 -0.066001 0.165827 -0.048337 -8.466798 -44.308842 8.120125 25.309834 65.849379 25.766775 -12.760277 29.895619 -2.844482 -0.151743 -14.543596 -6.539171
-16.040863 57.107317 87.560096 172.017807 -33.561509 0.067748 5.576776 21.803853 6.928704 0.600249 3.199191 0.624066 0.989303 5.170193 1.027369 4.148555 18.598532 4.241762 5.677462 7.635459 -7.928150 15.053859 -20.124447 -18.387449 4.926087 1.044148 -2.643326 11.831627 -43.265309 -20.750356 -90.394134 -62.824928 85.886490 -11.056974 0.632844 -25.939713 -10.356970 -5.881907 -6.602111 -9.946485 -26.530897 -0.903803 18.678871 -9.831544 -37.542083 10.613502 -6.855265 11.357294 15.343608 -38.874831 -3.723559 -3.991335 67.313648 -2.428708 7.326595 5.319169 8.244224 -0.062832 0.164497 -0.046505 -8.474621 -44.317261 8.127165 25.298777 65.854468 25.752263 -12.770327 29.918160 -2.842258 -0.153365 -14.545498 -6.545017
-16.036982 57.107049 87.559555 172.022266 -33.558261 0.069025 5.585224 21.803542 6.916357 0.608980 3.199664 0.608259 0.985494 5.169128 1.039902 4.144764 18.594046 4.254473 5.727708 7.652373 -7.958841 15.309565 -19.999041 -18.548246 4.908265 1.047897 -2.633722 11.466920 -43.348482 -20.348445 -92.077807 -63.137641 86.965413 -11.155747 -0.818655 -29.118442 -10.383324 -5.877743 -6.606828 -9.891196 -26.509991 -0.922313 18.672947 -9.872271 -37.525595 10.613183 -6.836098 11.349455 15.331817 -38.878134 -3.716605 -3.982477 67.314829 -2.430943 7.319727 5.318446 8.243904 -0.065638 0.162450 -0.043624 -8.486463 -44.318800 8.138686 25.277293 65.857673 25.727252 -12.787607 29.924325 -2.863042 -0.142706 -14.543831 -6.538609
-16.032602 57.108360 87.556730 172.019757 -33.560444 0.076915 5.593841 21.807181 6.900753 0.605851 3.197128 0.605361 0.993664 5.167519 1.018609 4.154766 18.593359 4.266158 5.830167 7.707453 -8.019835 15.451687 -19.897958 -18.635268 4.884006 1.046172 -2.602129 11.080462 -43.439210 -19.928612 -93.797384 -63.596776 88.113287 -11.106263 -2.299371 -32.200438 -10.422226 -5.869701 -6.590744 -9.840413 -26.489297 -0.943092 18.652897 -9.906175 -37.501428 10.618541 -6.828411 11.353489 15.325200 -38.875018 -3.709021 -3.977255 67.317998 -2.437474 7.310465 5.315873 8.242100 -0.063293 0.161792 -0.042541 -8.484201 -44.314793 8.140112 25.282945 65.861915 25.726759 -12.793231 29.920813 -2.853577 -0.141219 -14.537479 -6.548587
-16.021229 57.114370 87.547820 171.980275 -33.601709 0.070554 5.645454 21.843823 6.910702 0.603067 3.196166 0.616349 0.994667 5.167808 1.025066 4.154385 18.591777 4.243348 5.924603 7.773922 -8.075071 15.579124 -19.786079 -18.709590 4.868356 1.049179 -2.568999 10.680554 -43.540017 -19.503337 -95.571126 -64.151030 89.343882 -10.947775 -3.792321 -35.130233 -10.457418 -5.860050 -6.576400 -9.798480 -26.451137 -0.980957 18.638023 -9.961337 -37.456712 10.620877 -6.817487 11.394264 15.255830 -38.838346 -3.594676 -3.966120 67.308857 -2.493024 7.320428 5.314551 8.247096 -0.061348 0.158647 -0.037221 -8.480485 -44.266584 8.184484 25.379965 65.884896 25.803561 -12.761985 29.856687 -2.795054 -0.178320 -14.502237 -6.568561
-16.015048 57.118990 87.540409 171.968385 -33.617486 0.078020 5.655952 21.859026 6.904578 0.598571 3.193555 0.606159 1.001377 5.169560 1.032745 4.139688 18.586598 4.191196 6.002697 7.834301 -8.081760 15.720026 -19.646974 -18.788855 4.858748 1.057774 -2.515834 10.280706 -43.650035 -19.078542 -97.427754 -64.749141 90.671168 -10.698299 -5.265931 -37.836011 -10.488022 -5.843578 -6.538687 -9.772785 -26.433611 -0.996069 18.641178 -9.990775 -37.418536 10.611643 -6.805225 11.414969 15.235690 -38.821685 -3.560683 -3.968893 67.312157 -2.522604 7.316741 5.313305 8.247540 -0.062039 0.153357 -0.034186 -8.481815 -44.236392 8.206213 25.402435 65.895575 25.799449 -12.754669 29.794436 -2.783205 -0.188016 -14.458514 -6.561993
-16.014742 57.124486 87.530888 171.934967 -33.634970 0.131942 5.669232 21.879292 6.860275 0.595486 3.192309 0.605037 1.001376 5.165965 1.018989 4.148484 18.589053 4.205201 6.049658 7.897219 -8.130719 15.849661 -19.498742 -18.857345 4.812620 1.072093 -2.518904 9.912497 -43.768074 -18.663571 -99.389202 -65.355274 92.098825 -10.379854 -6.688862 -40.276396 -10.531025 -5.845338 -6.544651 -9.758769 -26.423236 -0.998435 18.659625 -10.006526 -37.385651 10.598466 -6.790890 11.437582 15.255740 -38.799292 -3.568742 -3.962849 67.326246 -2.551809 7.309679 5.302959 8.249636 -0.055322 0.151792 -0.030561 -8.452933 -44.188717 8.190857 25.417186 65.887489 25.772010 -12.766470 29.711612 -2.789767 -0.176523 -14.392869 -6.551716
